%TF.GenerationSoftware,KiCad,Pcbnew,(6.0.2)*%
%TF.CreationDate,2022-06-11T15:58:10+03:00*%
%TF.ProjectId,keyholder,6b657968-6f6c-4646-9572-2e6b69636164,rev?*%
%TF.SameCoordinates,Original*%
%TF.FileFunction,Legend,Bot*%
%TF.FilePolarity,Positive*%
%FSLAX46Y46*%
G04 Gerber Fmt 4.6, Leading zero omitted, Abs format (unit mm)*
G04 Created by KiCad (PCBNEW (6.0.2)) date 2022-06-11 15:58:10*
%MOMM*%
%LPD*%
G01*
G04 APERTURE LIST*
%ADD10C,0.150000*%
%ADD11C,0.120000*%
G04 APERTURE END LIST*
D10*
%TO.C,R4*%
X98116666Y-120116666D02*
X98350000Y-119783333D01*
X98516666Y-120116666D02*
X98516666Y-119416666D01*
X98250000Y-119416666D01*
X98183333Y-119450000D01*
X98150000Y-119483333D01*
X98116666Y-119550000D01*
X98116666Y-119650000D01*
X98150000Y-119716666D01*
X98183333Y-119750000D01*
X98250000Y-119783333D01*
X98516666Y-119783333D01*
X97516666Y-119650000D02*
X97516666Y-120116666D01*
X97683333Y-119383333D02*
X97850000Y-119883333D01*
X97416666Y-119883333D01*
%TO.C,JP1*%
X61833333Y-119816666D02*
X61833333Y-120316666D01*
X61866666Y-120416666D01*
X61933333Y-120483333D01*
X62033333Y-120516666D01*
X62100000Y-120516666D01*
X61500000Y-120516666D02*
X61500000Y-119816666D01*
X61233333Y-119816666D01*
X61166666Y-119850000D01*
X61133333Y-119883333D01*
X61100000Y-119950000D01*
X61100000Y-120050000D01*
X61133333Y-120116666D01*
X61166666Y-120150000D01*
X61233333Y-120183333D01*
X61500000Y-120183333D01*
X60433333Y-120516666D02*
X60833333Y-120516666D01*
X60633333Y-120516666D02*
X60633333Y-119816666D01*
X60700000Y-119916666D01*
X60766666Y-119983333D01*
X60833333Y-120016666D01*
%TO.C,C5*%
X89866666Y-115800000D02*
X89900000Y-115833333D01*
X90000000Y-115866666D01*
X90066666Y-115866666D01*
X90166666Y-115833333D01*
X90233333Y-115766666D01*
X90266666Y-115700000D01*
X90300000Y-115566666D01*
X90300000Y-115466666D01*
X90266666Y-115333333D01*
X90233333Y-115266666D01*
X90166666Y-115200000D01*
X90066666Y-115166666D01*
X90000000Y-115166666D01*
X89900000Y-115200000D01*
X89866666Y-115233333D01*
X89233333Y-115166666D02*
X89566666Y-115166666D01*
X89600000Y-115500000D01*
X89566666Y-115466666D01*
X89500000Y-115433333D01*
X89333333Y-115433333D01*
X89266666Y-115466666D01*
X89233333Y-115500000D01*
X89200000Y-115566666D01*
X89200000Y-115733333D01*
X89233333Y-115800000D01*
X89266666Y-115833333D01*
X89333333Y-115866666D01*
X89500000Y-115866666D01*
X89566666Y-115833333D01*
X89600000Y-115800000D01*
%TO.C,R8*%
X71566666Y-115516666D02*
X71800000Y-115183333D01*
X71966666Y-115516666D02*
X71966666Y-114816666D01*
X71700000Y-114816666D01*
X71633333Y-114850000D01*
X71600000Y-114883333D01*
X71566666Y-114950000D01*
X71566666Y-115050000D01*
X71600000Y-115116666D01*
X71633333Y-115150000D01*
X71700000Y-115183333D01*
X71966666Y-115183333D01*
X71166666Y-115116666D02*
X71233333Y-115083333D01*
X71266666Y-115050000D01*
X71300000Y-114983333D01*
X71300000Y-114950000D01*
X71266666Y-114883333D01*
X71233333Y-114850000D01*
X71166666Y-114816666D01*
X71033333Y-114816666D01*
X70966666Y-114850000D01*
X70933333Y-114883333D01*
X70900000Y-114950000D01*
X70900000Y-114983333D01*
X70933333Y-115050000D01*
X70966666Y-115083333D01*
X71033333Y-115116666D01*
X71166666Y-115116666D01*
X71233333Y-115150000D01*
X71266666Y-115183333D01*
X71300000Y-115250000D01*
X71300000Y-115383333D01*
X71266666Y-115450000D01*
X71233333Y-115483333D01*
X71166666Y-115516666D01*
X71033333Y-115516666D01*
X70966666Y-115483333D01*
X70933333Y-115450000D01*
X70900000Y-115383333D01*
X70900000Y-115250000D01*
X70933333Y-115183333D01*
X70966666Y-115150000D01*
X71033333Y-115116666D01*
%TO.C,U2*%
X79811904Y-115652380D02*
X79811904Y-116461904D01*
X79764285Y-116557142D01*
X79716666Y-116604761D01*
X79621428Y-116652380D01*
X79430952Y-116652380D01*
X79335714Y-116604761D01*
X79288095Y-116557142D01*
X79240476Y-116461904D01*
X79240476Y-115652380D01*
X78811904Y-115747619D02*
X78764285Y-115700000D01*
X78669047Y-115652380D01*
X78430952Y-115652380D01*
X78335714Y-115700000D01*
X78288095Y-115747619D01*
X78240476Y-115842857D01*
X78240476Y-115938095D01*
X78288095Y-116080952D01*
X78859523Y-116652380D01*
X78240476Y-116652380D01*
%TO.C,C13*%
X91150000Y-128350000D02*
X91183333Y-128316666D01*
X91216666Y-128216666D01*
X91216666Y-128150000D01*
X91183333Y-128050000D01*
X91116666Y-127983333D01*
X91050000Y-127950000D01*
X90916666Y-127916666D01*
X90816666Y-127916666D01*
X90683333Y-127950000D01*
X90616666Y-127983333D01*
X90550000Y-128050000D01*
X90516666Y-128150000D01*
X90516666Y-128216666D01*
X90550000Y-128316666D01*
X90583333Y-128350000D01*
X91216666Y-129016666D02*
X91216666Y-128616666D01*
X91216666Y-128816666D02*
X90516666Y-128816666D01*
X90616666Y-128750000D01*
X90683333Y-128683333D01*
X90716666Y-128616666D01*
X90516666Y-129250000D02*
X90516666Y-129683333D01*
X90783333Y-129450000D01*
X90783333Y-129550000D01*
X90816666Y-129616666D01*
X90850000Y-129650000D01*
X90916666Y-129683333D01*
X91083333Y-129683333D01*
X91150000Y-129650000D01*
X91183333Y-129616666D01*
X91216666Y-129550000D01*
X91216666Y-129350000D01*
X91183333Y-129283333D01*
X91150000Y-129250000D01*
%TO.C,R3*%
X64616666Y-123916666D02*
X64850000Y-123583333D01*
X65016666Y-123916666D02*
X65016666Y-123216666D01*
X64750000Y-123216666D01*
X64683333Y-123250000D01*
X64650000Y-123283333D01*
X64616666Y-123350000D01*
X64616666Y-123450000D01*
X64650000Y-123516666D01*
X64683333Y-123550000D01*
X64750000Y-123583333D01*
X65016666Y-123583333D01*
X64383333Y-123216666D02*
X63950000Y-123216666D01*
X64183333Y-123483333D01*
X64083333Y-123483333D01*
X64016666Y-123516666D01*
X63983333Y-123550000D01*
X63950000Y-123616666D01*
X63950000Y-123783333D01*
X63983333Y-123850000D01*
X64016666Y-123883333D01*
X64083333Y-123916666D01*
X64283333Y-123916666D01*
X64350000Y-123883333D01*
X64383333Y-123850000D01*
%TO.C,C4*%
X75016666Y-115500000D02*
X75050000Y-115533333D01*
X75150000Y-115566666D01*
X75216666Y-115566666D01*
X75316666Y-115533333D01*
X75383333Y-115466666D01*
X75416666Y-115400000D01*
X75450000Y-115266666D01*
X75450000Y-115166666D01*
X75416666Y-115033333D01*
X75383333Y-114966666D01*
X75316666Y-114900000D01*
X75216666Y-114866666D01*
X75150000Y-114866666D01*
X75050000Y-114900000D01*
X75016666Y-114933333D01*
X74416666Y-115100000D02*
X74416666Y-115566666D01*
X74583333Y-114833333D02*
X74750000Y-115333333D01*
X74316666Y-115333333D01*
%TO.C,Q1*%
X86066666Y-115783333D02*
X86133333Y-115750000D01*
X86200000Y-115683333D01*
X86300000Y-115583333D01*
X86366666Y-115550000D01*
X86433333Y-115550000D01*
X86400000Y-115716666D02*
X86466666Y-115683333D01*
X86533333Y-115616666D01*
X86566666Y-115483333D01*
X86566666Y-115250000D01*
X86533333Y-115116666D01*
X86466666Y-115050000D01*
X86400000Y-115016666D01*
X86266666Y-115016666D01*
X86200000Y-115050000D01*
X86133333Y-115116666D01*
X86100000Y-115250000D01*
X86100000Y-115483333D01*
X86133333Y-115616666D01*
X86200000Y-115683333D01*
X86266666Y-115716666D01*
X86400000Y-115716666D01*
X85433333Y-115716666D02*
X85833333Y-115716666D01*
X85633333Y-115716666D02*
X85633333Y-115016666D01*
X85700000Y-115116666D01*
X85766666Y-115183333D01*
X85833333Y-115216666D01*
%TO.C,C12*%
X91150000Y-126250000D02*
X91183333Y-126216666D01*
X91216666Y-126116666D01*
X91216666Y-126050000D01*
X91183333Y-125950000D01*
X91116666Y-125883333D01*
X91050000Y-125850000D01*
X90916666Y-125816666D01*
X90816666Y-125816666D01*
X90683333Y-125850000D01*
X90616666Y-125883333D01*
X90550000Y-125950000D01*
X90516666Y-126050000D01*
X90516666Y-126116666D01*
X90550000Y-126216666D01*
X90583333Y-126250000D01*
X91216666Y-126916666D02*
X91216666Y-126516666D01*
X91216666Y-126716666D02*
X90516666Y-126716666D01*
X90616666Y-126650000D01*
X90683333Y-126583333D01*
X90716666Y-126516666D01*
X90583333Y-127183333D02*
X90550000Y-127216666D01*
X90516666Y-127283333D01*
X90516666Y-127450000D01*
X90550000Y-127516666D01*
X90583333Y-127550000D01*
X90650000Y-127583333D01*
X90716666Y-127583333D01*
X90816666Y-127550000D01*
X91216666Y-127150000D01*
X91216666Y-127583333D01*
%TO.C,R2*%
X69666666Y-123716666D02*
X69900000Y-123383333D01*
X70066666Y-123716666D02*
X70066666Y-123016666D01*
X69800000Y-123016666D01*
X69733333Y-123050000D01*
X69700000Y-123083333D01*
X69666666Y-123150000D01*
X69666666Y-123250000D01*
X69700000Y-123316666D01*
X69733333Y-123350000D01*
X69800000Y-123383333D01*
X70066666Y-123383333D01*
X69400000Y-123083333D02*
X69366666Y-123050000D01*
X69300000Y-123016666D01*
X69133333Y-123016666D01*
X69066666Y-123050000D01*
X69033333Y-123083333D01*
X69000000Y-123150000D01*
X69000000Y-123216666D01*
X69033333Y-123316666D01*
X69433333Y-123716666D01*
X69000000Y-123716666D01*
%TO.C,U1*%
X63083333Y-125416666D02*
X63083333Y-125983333D01*
X63050000Y-126050000D01*
X63016666Y-126083333D01*
X62950000Y-126116666D01*
X62816666Y-126116666D01*
X62750000Y-126083333D01*
X62716666Y-126050000D01*
X62683333Y-125983333D01*
X62683333Y-125416666D01*
X61983333Y-126116666D02*
X62383333Y-126116666D01*
X62183333Y-126116666D02*
X62183333Y-125416666D01*
X62250000Y-125516666D01*
X62316666Y-125583333D01*
X62383333Y-125616666D01*
%TO.C,C8*%
X73516666Y-128300000D02*
X73550000Y-128333333D01*
X73650000Y-128366666D01*
X73716666Y-128366666D01*
X73816666Y-128333333D01*
X73883333Y-128266666D01*
X73916666Y-128200000D01*
X73950000Y-128066666D01*
X73950000Y-127966666D01*
X73916666Y-127833333D01*
X73883333Y-127766666D01*
X73816666Y-127700000D01*
X73716666Y-127666666D01*
X73650000Y-127666666D01*
X73550000Y-127700000D01*
X73516666Y-127733333D01*
X73116666Y-127966666D02*
X73183333Y-127933333D01*
X73216666Y-127900000D01*
X73250000Y-127833333D01*
X73250000Y-127800000D01*
X73216666Y-127733333D01*
X73183333Y-127700000D01*
X73116666Y-127666666D01*
X72983333Y-127666666D01*
X72916666Y-127700000D01*
X72883333Y-127733333D01*
X72850000Y-127800000D01*
X72850000Y-127833333D01*
X72883333Y-127900000D01*
X72916666Y-127933333D01*
X72983333Y-127966666D01*
X73116666Y-127966666D01*
X73183333Y-128000000D01*
X73216666Y-128033333D01*
X73250000Y-128100000D01*
X73250000Y-128233333D01*
X73216666Y-128300000D01*
X73183333Y-128333333D01*
X73116666Y-128366666D01*
X72983333Y-128366666D01*
X72916666Y-128333333D01*
X72883333Y-128300000D01*
X72850000Y-128233333D01*
X72850000Y-128100000D01*
X72883333Y-128033333D01*
X72916666Y-128000000D01*
X72983333Y-127966666D01*
%TO.C,C6*%
X97366666Y-115750000D02*
X97400000Y-115783333D01*
X97500000Y-115816666D01*
X97566666Y-115816666D01*
X97666666Y-115783333D01*
X97733333Y-115716666D01*
X97766666Y-115650000D01*
X97800000Y-115516666D01*
X97800000Y-115416666D01*
X97766666Y-115283333D01*
X97733333Y-115216666D01*
X97666666Y-115150000D01*
X97566666Y-115116666D01*
X97500000Y-115116666D01*
X97400000Y-115150000D01*
X97366666Y-115183333D01*
X96766666Y-115116666D02*
X96900000Y-115116666D01*
X96966666Y-115150000D01*
X97000000Y-115183333D01*
X97066666Y-115283333D01*
X97100000Y-115416666D01*
X97100000Y-115683333D01*
X97066666Y-115750000D01*
X97033333Y-115783333D01*
X96966666Y-115816666D01*
X96833333Y-115816666D01*
X96766666Y-115783333D01*
X96733333Y-115750000D01*
X96700000Y-115683333D01*
X96700000Y-115516666D01*
X96733333Y-115450000D01*
X96766666Y-115416666D01*
X96833333Y-115383333D01*
X96966666Y-115383333D01*
X97033333Y-115416666D01*
X97066666Y-115450000D01*
X97100000Y-115516666D01*
%TO.C,R1*%
X72616666Y-124316666D02*
X72850000Y-123983333D01*
X73016666Y-124316666D02*
X73016666Y-123616666D01*
X72750000Y-123616666D01*
X72683333Y-123650000D01*
X72650000Y-123683333D01*
X72616666Y-123750000D01*
X72616666Y-123850000D01*
X72650000Y-123916666D01*
X72683333Y-123950000D01*
X72750000Y-123983333D01*
X73016666Y-123983333D01*
X71950000Y-124316666D02*
X72350000Y-124316666D01*
X72150000Y-124316666D02*
X72150000Y-123616666D01*
X72216666Y-123716666D01*
X72283333Y-123783333D01*
X72350000Y-123816666D01*
%TO.C,U3*%
X64233333Y-117916666D02*
X64233333Y-118483333D01*
X64200000Y-118550000D01*
X64166666Y-118583333D01*
X64100000Y-118616666D01*
X63966666Y-118616666D01*
X63900000Y-118583333D01*
X63866666Y-118550000D01*
X63833333Y-118483333D01*
X63833333Y-117916666D01*
X63566666Y-117916666D02*
X63133333Y-117916666D01*
X63366666Y-118183333D01*
X63266666Y-118183333D01*
X63200000Y-118216666D01*
X63166666Y-118250000D01*
X63133333Y-118316666D01*
X63133333Y-118483333D01*
X63166666Y-118550000D01*
X63200000Y-118583333D01*
X63266666Y-118616666D01*
X63466666Y-118616666D01*
X63533333Y-118583333D01*
X63566666Y-118550000D01*
%TO.C,C14*%
X72950000Y-119550000D02*
X72983333Y-119583333D01*
X73083333Y-119616666D01*
X73150000Y-119616666D01*
X73250000Y-119583333D01*
X73316666Y-119516666D01*
X73350000Y-119450000D01*
X73383333Y-119316666D01*
X73383333Y-119216666D01*
X73350000Y-119083333D01*
X73316666Y-119016666D01*
X73250000Y-118950000D01*
X73150000Y-118916666D01*
X73083333Y-118916666D01*
X72983333Y-118950000D01*
X72950000Y-118983333D01*
X72283333Y-119616666D02*
X72683333Y-119616666D01*
X72483333Y-119616666D02*
X72483333Y-118916666D01*
X72550000Y-119016666D01*
X72616666Y-119083333D01*
X72683333Y-119116666D01*
X71683333Y-119150000D02*
X71683333Y-119616666D01*
X71850000Y-118883333D02*
X72016666Y-119383333D01*
X71583333Y-119383333D01*
%TO.C,U5*%
X93983333Y-121166666D02*
X93983333Y-121733333D01*
X93950000Y-121800000D01*
X93916666Y-121833333D01*
X93850000Y-121866666D01*
X93716666Y-121866666D01*
X93650000Y-121833333D01*
X93616666Y-121800000D01*
X93583333Y-121733333D01*
X93583333Y-121166666D01*
X92916666Y-121166666D02*
X93250000Y-121166666D01*
X93283333Y-121500000D01*
X93250000Y-121466666D01*
X93183333Y-121433333D01*
X93016666Y-121433333D01*
X92950000Y-121466666D01*
X92916666Y-121500000D01*
X92883333Y-121566666D01*
X92883333Y-121733333D01*
X92916666Y-121800000D01*
X92950000Y-121833333D01*
X93016666Y-121866666D01*
X93183333Y-121866666D01*
X93250000Y-121833333D01*
X93283333Y-121800000D01*
%TO.C,U4*%
X71983333Y-128016666D02*
X71983333Y-128583333D01*
X71950000Y-128650000D01*
X71916666Y-128683333D01*
X71850000Y-128716666D01*
X71716666Y-128716666D01*
X71650000Y-128683333D01*
X71616666Y-128650000D01*
X71583333Y-128583333D01*
X71583333Y-128016666D01*
X70950000Y-128250000D02*
X70950000Y-128716666D01*
X71116666Y-127983333D02*
X71283333Y-128483333D01*
X70850000Y-128483333D01*
%TO.C,C10*%
X69450000Y-121450000D02*
X69483333Y-121483333D01*
X69583333Y-121516666D01*
X69650000Y-121516666D01*
X69750000Y-121483333D01*
X69816666Y-121416666D01*
X69850000Y-121350000D01*
X69883333Y-121216666D01*
X69883333Y-121116666D01*
X69850000Y-120983333D01*
X69816666Y-120916666D01*
X69750000Y-120850000D01*
X69650000Y-120816666D01*
X69583333Y-120816666D01*
X69483333Y-120850000D01*
X69450000Y-120883333D01*
X68783333Y-121516666D02*
X69183333Y-121516666D01*
X68983333Y-121516666D02*
X68983333Y-120816666D01*
X69050000Y-120916666D01*
X69116666Y-120983333D01*
X69183333Y-121016666D01*
X68350000Y-120816666D02*
X68283333Y-120816666D01*
X68216666Y-120850000D01*
X68183333Y-120883333D01*
X68150000Y-120950000D01*
X68116666Y-121083333D01*
X68116666Y-121250000D01*
X68150000Y-121383333D01*
X68183333Y-121450000D01*
X68216666Y-121483333D01*
X68283333Y-121516666D01*
X68350000Y-121516666D01*
X68416666Y-121483333D01*
X68450000Y-121450000D01*
X68483333Y-121383333D01*
X68516666Y-121250000D01*
X68516666Y-121083333D01*
X68483333Y-120950000D01*
X68450000Y-120883333D01*
X68416666Y-120850000D01*
X68350000Y-120816666D01*
%TO.C,C3*%
X66466666Y-129100000D02*
X66500000Y-129133333D01*
X66600000Y-129166666D01*
X66666666Y-129166666D01*
X66766666Y-129133333D01*
X66833333Y-129066666D01*
X66866666Y-129000000D01*
X66900000Y-128866666D01*
X66900000Y-128766666D01*
X66866666Y-128633333D01*
X66833333Y-128566666D01*
X66766666Y-128500000D01*
X66666666Y-128466666D01*
X66600000Y-128466666D01*
X66500000Y-128500000D01*
X66466666Y-128533333D01*
X66233333Y-128466666D02*
X65800000Y-128466666D01*
X66033333Y-128733333D01*
X65933333Y-128733333D01*
X65866666Y-128766666D01*
X65833333Y-128800000D01*
X65800000Y-128866666D01*
X65800000Y-129033333D01*
X65833333Y-129100000D01*
X65866666Y-129133333D01*
X65933333Y-129166666D01*
X66133333Y-129166666D01*
X66200000Y-129133333D01*
X66233333Y-129100000D01*
%TO.C,Y1*%
X89033333Y-128933333D02*
X89033333Y-129266666D01*
X89266666Y-128566666D02*
X89033333Y-128933333D01*
X88800000Y-128566666D01*
X88200000Y-129266666D02*
X88600000Y-129266666D01*
X88400000Y-129266666D02*
X88400000Y-128566666D01*
X88466666Y-128666666D01*
X88533333Y-128733333D01*
X88600000Y-128766666D01*
%TO.C,C2*%
X66416666Y-115450000D02*
X66450000Y-115483333D01*
X66550000Y-115516666D01*
X66616666Y-115516666D01*
X66716666Y-115483333D01*
X66783333Y-115416666D01*
X66816666Y-115350000D01*
X66850000Y-115216666D01*
X66850000Y-115116666D01*
X66816666Y-114983333D01*
X66783333Y-114916666D01*
X66716666Y-114850000D01*
X66616666Y-114816666D01*
X66550000Y-114816666D01*
X66450000Y-114850000D01*
X66416666Y-114883333D01*
X66150000Y-114883333D02*
X66116666Y-114850000D01*
X66050000Y-114816666D01*
X65883333Y-114816666D01*
X65816666Y-114850000D01*
X65783333Y-114883333D01*
X65750000Y-114950000D01*
X65750000Y-115016666D01*
X65783333Y-115116666D01*
X66183333Y-115516666D01*
X65750000Y-115516666D01*
%TO.C,L1*%
X92216666Y-115916666D02*
X92550000Y-115916666D01*
X92550000Y-115216666D01*
X91616666Y-115916666D02*
X92016666Y-115916666D01*
X91816666Y-115916666D02*
X91816666Y-115216666D01*
X91883333Y-115316666D01*
X91950000Y-115383333D01*
X92016666Y-115416666D01*
%TO.C,R7*%
X83466666Y-115516666D02*
X83700000Y-115183333D01*
X83866666Y-115516666D02*
X83866666Y-114816666D01*
X83600000Y-114816666D01*
X83533333Y-114850000D01*
X83500000Y-114883333D01*
X83466666Y-114950000D01*
X83466666Y-115050000D01*
X83500000Y-115116666D01*
X83533333Y-115150000D01*
X83600000Y-115183333D01*
X83866666Y-115183333D01*
X83233333Y-114816666D02*
X82766666Y-114816666D01*
X83066666Y-115516666D01*
%TO.C,R6*%
X98116666Y-123316666D02*
X98350000Y-122983333D01*
X98516666Y-123316666D02*
X98516666Y-122616666D01*
X98250000Y-122616666D01*
X98183333Y-122650000D01*
X98150000Y-122683333D01*
X98116666Y-122750000D01*
X98116666Y-122850000D01*
X98150000Y-122916666D01*
X98183333Y-122950000D01*
X98250000Y-122983333D01*
X98516666Y-122983333D01*
X97516666Y-122616666D02*
X97650000Y-122616666D01*
X97716666Y-122650000D01*
X97750000Y-122683333D01*
X97816666Y-122783333D01*
X97850000Y-122916666D01*
X97850000Y-123183333D01*
X97816666Y-123250000D01*
X97783333Y-123283333D01*
X97716666Y-123316666D01*
X97583333Y-123316666D01*
X97516666Y-123283333D01*
X97483333Y-123250000D01*
X97450000Y-123183333D01*
X97450000Y-123016666D01*
X97483333Y-122950000D01*
X97516666Y-122916666D01*
X97583333Y-122883333D01*
X97716666Y-122883333D01*
X97783333Y-122916666D01*
X97816666Y-122950000D01*
X97850000Y-123016666D01*
%TO.C,C9*%
X83166666Y-129100000D02*
X83200000Y-129133333D01*
X83300000Y-129166666D01*
X83366666Y-129166666D01*
X83466666Y-129133333D01*
X83533333Y-129066666D01*
X83566666Y-129000000D01*
X83600000Y-128866666D01*
X83600000Y-128766666D01*
X83566666Y-128633333D01*
X83533333Y-128566666D01*
X83466666Y-128500000D01*
X83366666Y-128466666D01*
X83300000Y-128466666D01*
X83200000Y-128500000D01*
X83166666Y-128533333D01*
X82833333Y-129166666D02*
X82700000Y-129166666D01*
X82633333Y-129133333D01*
X82600000Y-129100000D01*
X82533333Y-129000000D01*
X82500000Y-128866666D01*
X82500000Y-128600000D01*
X82533333Y-128533333D01*
X82566666Y-128500000D01*
X82633333Y-128466666D01*
X82766666Y-128466666D01*
X82833333Y-128500000D01*
X82866666Y-128533333D01*
X82900000Y-128600000D01*
X82900000Y-128766666D01*
X82866666Y-128833333D01*
X82833333Y-128866666D01*
X82766666Y-128900000D01*
X82633333Y-128900000D01*
X82566666Y-128866666D01*
X82533333Y-128833333D01*
X82500000Y-128766666D01*
%TO.C,C7*%
X98116666Y-124750000D02*
X98150000Y-124783333D01*
X98250000Y-124816666D01*
X98316666Y-124816666D01*
X98416666Y-124783333D01*
X98483333Y-124716666D01*
X98516666Y-124650000D01*
X98550000Y-124516666D01*
X98550000Y-124416666D01*
X98516666Y-124283333D01*
X98483333Y-124216666D01*
X98416666Y-124150000D01*
X98316666Y-124116666D01*
X98250000Y-124116666D01*
X98150000Y-124150000D01*
X98116666Y-124183333D01*
X97883333Y-124116666D02*
X97416666Y-124116666D01*
X97716666Y-124816666D01*
%TO.C,C1*%
X88916666Y-119500000D02*
X88950000Y-119533333D01*
X89050000Y-119566666D01*
X89116666Y-119566666D01*
X89216666Y-119533333D01*
X89283333Y-119466666D01*
X89316666Y-119400000D01*
X89350000Y-119266666D01*
X89350000Y-119166666D01*
X89316666Y-119033333D01*
X89283333Y-118966666D01*
X89216666Y-118900000D01*
X89116666Y-118866666D01*
X89050000Y-118866666D01*
X88950000Y-118900000D01*
X88916666Y-118933333D01*
X88250000Y-119566666D02*
X88650000Y-119566666D01*
X88450000Y-119566666D02*
X88450000Y-118866666D01*
X88516666Y-118966666D01*
X88583333Y-119033333D01*
X88650000Y-119066666D01*
%TO.C,Y2*%
X93233333Y-123166666D02*
X93566666Y-123166666D01*
X92866666Y-122933333D02*
X93233333Y-123166666D01*
X92866666Y-123400000D01*
X92933333Y-123600000D02*
X92900000Y-123633333D01*
X92866666Y-123700000D01*
X92866666Y-123866666D01*
X92900000Y-123933333D01*
X92933333Y-123966666D01*
X93000000Y-124000000D01*
X93066666Y-124000000D01*
X93166666Y-123966666D01*
X93566666Y-123566666D01*
X93566666Y-124000000D01*
%TO.C,R5*%
X98116666Y-121716666D02*
X98350000Y-121383333D01*
X98516666Y-121716666D02*
X98516666Y-121016666D01*
X98250000Y-121016666D01*
X98183333Y-121050000D01*
X98150000Y-121083333D01*
X98116666Y-121150000D01*
X98116666Y-121250000D01*
X98150000Y-121316666D01*
X98183333Y-121350000D01*
X98250000Y-121383333D01*
X98516666Y-121383333D01*
X97483333Y-121016666D02*
X97816666Y-121016666D01*
X97850000Y-121350000D01*
X97816666Y-121316666D01*
X97750000Y-121283333D01*
X97583333Y-121283333D01*
X97516666Y-121316666D01*
X97483333Y-121350000D01*
X97450000Y-121416666D01*
X97450000Y-121583333D01*
X97483333Y-121650000D01*
X97516666Y-121683333D01*
X97583333Y-121716666D01*
X97750000Y-121716666D01*
X97816666Y-121683333D01*
X97850000Y-121650000D01*
%TO.C,C11*%
X87600000Y-123900000D02*
X87633333Y-123933333D01*
X87733333Y-123966666D01*
X87800000Y-123966666D01*
X87900000Y-123933333D01*
X87966666Y-123866666D01*
X88000000Y-123800000D01*
X88033333Y-123666666D01*
X88033333Y-123566666D01*
X88000000Y-123433333D01*
X87966666Y-123366666D01*
X87900000Y-123300000D01*
X87800000Y-123266666D01*
X87733333Y-123266666D01*
X87633333Y-123300000D01*
X87600000Y-123333333D01*
X86933333Y-123966666D02*
X87333333Y-123966666D01*
X87133333Y-123966666D02*
X87133333Y-123266666D01*
X87200000Y-123366666D01*
X87266666Y-123433333D01*
X87333333Y-123466666D01*
X86266666Y-123966666D02*
X86666666Y-123966666D01*
X86466666Y-123966666D02*
X86466666Y-123266666D01*
X86533333Y-123366666D01*
X86600000Y-123433333D01*
X86666666Y-123466666D01*
%TO.C,R9*%
X74016666Y-117883333D02*
X73683333Y-117650000D01*
X74016666Y-117483333D02*
X73316666Y-117483333D01*
X73316666Y-117750000D01*
X73350000Y-117816666D01*
X73383333Y-117850000D01*
X73450000Y-117883333D01*
X73550000Y-117883333D01*
X73616666Y-117850000D01*
X73650000Y-117816666D01*
X73683333Y-117750000D01*
X73683333Y-117483333D01*
X74016666Y-118216666D02*
X74016666Y-118350000D01*
X73983333Y-118416666D01*
X73950000Y-118450000D01*
X73850000Y-118516666D01*
X73716666Y-118550000D01*
X73450000Y-118550000D01*
X73383333Y-118516666D01*
X73350000Y-118483333D01*
X73316666Y-118416666D01*
X73316666Y-118283333D01*
X73350000Y-118216666D01*
X73383333Y-118183333D01*
X73450000Y-118150000D01*
X73616666Y-118150000D01*
X73683333Y-118183333D01*
X73716666Y-118216666D01*
X73750000Y-118283333D01*
X73750000Y-118416666D01*
X73716666Y-118483333D01*
X73683333Y-118516666D01*
X73616666Y-118550000D01*
%TO.C,D1*%
X95066666Y-115966666D02*
X95066666Y-115266666D01*
X94900000Y-115266666D01*
X94800000Y-115300000D01*
X94733333Y-115366666D01*
X94700000Y-115433333D01*
X94666666Y-115566666D01*
X94666666Y-115666666D01*
X94700000Y-115800000D01*
X94733333Y-115866666D01*
X94800000Y-115933333D01*
X94900000Y-115966666D01*
X95066666Y-115966666D01*
X94000000Y-115966666D02*
X94400000Y-115966666D01*
X94200000Y-115966666D02*
X94200000Y-115266666D01*
X94266666Y-115366666D01*
X94333333Y-115433333D01*
X94400000Y-115466666D01*
D11*
%TO.C,R4*%
X95537258Y-119277500D02*
X95062742Y-119277500D01*
X95537258Y-120322500D02*
X95062742Y-120322500D01*
%TO.C,JP1*%
X63600000Y-121000000D02*
X60800000Y-121000000D01*
X60800000Y-121000000D02*
X60800000Y-123000000D01*
X60800000Y-123000000D02*
X63600000Y-123000000D01*
X63600000Y-123000000D02*
X63600000Y-121000000D01*
%TO.C,C5*%
X89840580Y-117310000D02*
X89559420Y-117310000D01*
X89840580Y-116290000D02*
X89559420Y-116290000D01*
%TO.C,R8*%
X69837258Y-115977500D02*
X69362742Y-115977500D01*
X69837258Y-117022500D02*
X69362742Y-117022500D01*
%TO.C,U2*%
X83887113Y-122418198D02*
X84799281Y-123330366D01*
X79100000Y-127205311D02*
X79418198Y-126887113D01*
X73994689Y-122100000D02*
X74312887Y-121781802D01*
X78781802Y-126887113D02*
X79100000Y-127205311D01*
X84205311Y-122100000D02*
X83887113Y-122418198D01*
X83887113Y-121781802D02*
X84205311Y-122100000D01*
X79100000Y-116994689D02*
X78781802Y-117312887D01*
X74312887Y-122418198D02*
X73994689Y-122100000D01*
X79418198Y-117312887D02*
X79100000Y-116994689D01*
%TO.C,C13*%
X90010000Y-125859420D02*
X90010000Y-126140580D01*
X88990000Y-125859420D02*
X88990000Y-126140580D01*
%TO.C,R3*%
X65262742Y-121777500D02*
X65737258Y-121777500D01*
X65262742Y-122822500D02*
X65737258Y-122822500D01*
%TO.C,C4*%
X74759420Y-115990000D02*
X75040580Y-115990000D01*
X74759420Y-117010000D02*
X75040580Y-117010000D01*
%TO.C,Q1*%
X84840000Y-117800000D02*
X84840000Y-116125000D01*
X87960000Y-117800000D02*
X87960000Y-118450000D01*
X84840000Y-117800000D02*
X84840000Y-118450000D01*
X87960000Y-117800000D02*
X87960000Y-117150000D01*
%TO.C,C12*%
X90010000Y-123140580D02*
X90010000Y-122859420D01*
X88990000Y-123140580D02*
X88990000Y-122859420D01*
%TO.C,R2*%
X71322500Y-121762742D02*
X71322500Y-122237258D01*
X70277500Y-121762742D02*
X70277500Y-122237258D01*
%TO.C,U1*%
X66000000Y-126460000D02*
X66650000Y-126460000D01*
X66000000Y-123340000D02*
X67675000Y-123340000D01*
X66000000Y-123340000D02*
X65350000Y-123340000D01*
X66000000Y-126460000D02*
X65350000Y-126460000D01*
%TO.C,C8*%
X72490000Y-126040580D02*
X72490000Y-125759420D01*
X73510000Y-126040580D02*
X73510000Y-125759420D01*
%TO.C,C6*%
X96090000Y-117640580D02*
X96090000Y-117359420D01*
X97110000Y-117640580D02*
X97110000Y-117359420D01*
%TO.C,R1*%
X71877500Y-121762742D02*
X71877500Y-122237258D01*
X72922500Y-121762742D02*
X72922500Y-122237258D01*
%TO.C,U3*%
X64640000Y-119400000D02*
X64640000Y-120200000D01*
X67760000Y-119400000D02*
X67760000Y-118600000D01*
X67760000Y-119400000D02*
X67760000Y-120200000D01*
X64640000Y-119400000D02*
X64640000Y-117600000D01*
%TO.C,C14*%
X71310000Y-118659420D02*
X71310000Y-118940580D01*
X70290000Y-118659420D02*
X70290000Y-118940580D01*
%TO.C,U5*%
X91700000Y-121060000D02*
X90900000Y-121060000D01*
X91700000Y-121060000D02*
X92500000Y-121060000D01*
X91700000Y-117940000D02*
X93500000Y-117940000D01*
X91700000Y-117940000D02*
X90900000Y-117940000D01*
%TO.C,U4*%
X68740000Y-125800000D02*
X68740000Y-126600000D01*
X68740000Y-125800000D02*
X68740000Y-124000000D01*
X71860000Y-125800000D02*
X71860000Y-126600000D01*
X71860000Y-125800000D02*
X71860000Y-125000000D01*
%TO.C,C10*%
X68640580Y-122810000D02*
X68359420Y-122810000D01*
X68640580Y-121790000D02*
X68359420Y-121790000D01*
%TO.C,C3*%
X66640580Y-126990000D02*
X66359420Y-126990000D01*
X66640580Y-128010000D02*
X66359420Y-128010000D01*
%TO.C,Y1*%
X85425000Y-128200000D02*
X85425000Y-124400000D01*
X88575000Y-128200000D02*
X85425000Y-128200000D01*
%TO.C,C2*%
X66640580Y-117010000D02*
X66359420Y-117010000D01*
X66640580Y-115990000D02*
X66359420Y-115990000D01*
%TO.C,L1*%
X92637221Y-116290000D02*
X92962779Y-116290000D01*
X92637221Y-117310000D02*
X92962779Y-117310000D01*
%TO.C,R7*%
X84322500Y-117487258D02*
X84322500Y-117012742D01*
X83277500Y-117487258D02*
X83277500Y-117012742D01*
%TO.C,R6*%
X95062742Y-123522500D02*
X95537258Y-123522500D01*
X95062742Y-122477500D02*
X95537258Y-122477500D01*
%TO.C,C9*%
X83540580Y-128010000D02*
X83259420Y-128010000D01*
X83540580Y-126990000D02*
X83259420Y-126990000D01*
%TO.C,C7*%
X95440580Y-125110000D02*
X95159420Y-125110000D01*
X95440580Y-124090000D02*
X95159420Y-124090000D01*
%TO.C,C1*%
X87240580Y-121110000D02*
X86959420Y-121110000D01*
X87240580Y-120090000D02*
X86959420Y-120090000D01*
%TO.C,Y2*%
X90550000Y-124050000D02*
X90550000Y-122950000D01*
X92450000Y-124050000D02*
X92450000Y-122950000D01*
X92400000Y-125450000D02*
X90600000Y-125450000D01*
%TO.C,R5*%
X95062742Y-120877500D02*
X95537258Y-120877500D01*
X95062742Y-121922500D02*
X95537258Y-121922500D01*
%TO.C,C11*%
X87240580Y-121690000D02*
X86959420Y-121690000D01*
X87240580Y-122710000D02*
X86959420Y-122710000D01*
%TO.C,R9*%
X72922500Y-117537258D02*
X72922500Y-117062742D01*
X71877500Y-117537258D02*
X71877500Y-117062742D01*
%TO.C,D1*%
X95700000Y-118650000D02*
X94500000Y-118650000D01*
X95700000Y-116800000D02*
X95700000Y-118650000D01*
X94500000Y-116800000D02*
X94500000Y-118650000D01*
%TD*%
M02*
