%TF.GenerationSoftware,KiCad,Pcbnew,(6.0.2)*%
%TF.CreationDate,2022-06-11T15:58:10+03:00*%
%TF.ProjectId,keyholder,6b657968-6f6c-4646-9572-2e6b69636164,rev?*%
%TF.SameCoordinates,Original*%
%TF.FileFunction,Soldermask,Top*%
%TF.FilePolarity,Negative*%
%FSLAX46Y46*%
G04 Gerber Fmt 4.6, Leading zero omitted, Abs format (unit mm)*
G04 Created by KiCad (PCBNEW (6.0.2)) date 2022-06-11 15:58:10*
%MOMM*%
%LPD*%
G01*
G04 APERTURE LIST*
G04 Aperture macros list*
%AMRoundRect*
0 Rectangle with rounded corners*
0 $1 Rounding radius*
0 $2 $3 $4 $5 $6 $7 $8 $9 X,Y pos of 4 corners*
0 Add a 4 corners polygon primitive as box body*
4,1,4,$2,$3,$4,$5,$6,$7,$8,$9,$2,$3,0*
0 Add four circle primitives for the rounded corners*
1,1,$1+$1,$2,$3*
1,1,$1+$1,$4,$5*
1,1,$1+$1,$6,$7*
1,1,$1+$1,$8,$9*
0 Add four rect primitives between the rounded corners*
20,1,$1+$1,$2,$3,$4,$5,0*
20,1,$1+$1,$4,$5,$6,$7,0*
20,1,$1+$1,$6,$7,$8,$9,0*
20,1,$1+$1,$8,$9,$2,$3,0*%
G04 Aperture macros list end*
%ADD10C,1.300000*%
%ADD11RoundRect,0.250000X-0.400000X0.250000X-0.400000X-0.250000X0.400000X-0.250000X0.400000X0.250000X0*%
%ADD12RoundRect,0.200000X-0.424264X-0.141421X-0.141421X-0.424264X0.424264X0.141421X0.141421X0.424264X0*%
%ADD13RoundRect,0.212500X-1.287500X0.212500X-1.287500X-0.212500X1.287500X-0.212500X1.287500X0.212500X0*%
%ADD14RoundRect,0.200000X-0.141421X0.424264X-0.424264X0.141421X0.141421X-0.424264X0.424264X-0.141421X0*%
%ADD15C,1.000000*%
%ADD16RoundRect,0.225000X-0.225000X-0.275000X0.225000X-0.275000X0.225000X0.275000X-0.225000X0.275000X0*%
%ADD17RoundRect,0.250000X-0.475000X-0.250000X0.475000X-0.250000X0.475000X0.250000X-0.475000X0.250000X0*%
%ADD18RoundRect,0.225000X0.225000X0.275000X-0.225000X0.275000X-0.225000X-0.275000X0.225000X-0.275000X0*%
%ADD19RoundRect,0.250000X0.475000X0.250000X-0.475000X0.250000X-0.475000X-0.250000X0.475000X-0.250000X0*%
%ADD20R,1.000000X1.000000*%
%ADD21O,1.000000X1.000000*%
%ADD22C,1.100000*%
%ADD23R,2.500000X1.100000*%
%ADD24O,3.500000X1.900000*%
%ADD25R,2.000000X0.350000*%
%ADD26R,1.350000X1.350000*%
%ADD27O,1.350000X1.350000*%
%ADD28R,1.100000X0.700000*%
G04 APERTURE END LIST*
D10*
%TO.C,SW9*%
X101212500Y-118100000D03*
X101212500Y-121900000D03*
D11*
X99262500Y-123000000D03*
X99262500Y-117000000D03*
D12*
X103312499Y-123800000D03*
D13*
X100712500Y-124725000D03*
X100712500Y-115275000D03*
D14*
X103312500Y-116200000D03*
D11*
X99262500Y-121000000D03*
X99262500Y-119000000D03*
%TD*%
D15*
%TO.C,SW5*%
X67850000Y-129100000D03*
X70150000Y-129100000D03*
D16*
X66900000Y-127450000D03*
X71100000Y-127450000D03*
D17*
X72400000Y-129500000D03*
X65600000Y-129500000D03*
%TD*%
D15*
%TO.C,SW6*%
X76350000Y-129100000D03*
X78650000Y-129100000D03*
D16*
X75400000Y-127450000D03*
X79600000Y-127450000D03*
D17*
X80900000Y-129500000D03*
X74100000Y-129500000D03*
%TD*%
D15*
%TO.C,SW3*%
X84850000Y-114900000D03*
X87150000Y-114900000D03*
D18*
X88100000Y-116550000D03*
X83900000Y-116550000D03*
D19*
X82600000Y-114500000D03*
X89400000Y-114500000D03*
%TD*%
D20*
%TO.C,J2*%
X72300000Y-124000000D03*
D21*
X72300000Y-122730000D03*
X72300000Y-121460000D03*
X72300000Y-120190000D03*
%TD*%
D15*
%TO.C,SW7*%
X84850000Y-129100000D03*
X87150000Y-129100000D03*
D16*
X83900000Y-127450000D03*
X88100000Y-127450000D03*
D17*
X82600000Y-129500000D03*
X89400000Y-129500000D03*
%TD*%
D15*
%TO.C,SW8*%
X93350000Y-129100000D03*
X95650000Y-129100000D03*
D16*
X92400000Y-127450000D03*
X96600000Y-127450000D03*
D17*
X91100000Y-129500000D03*
X97900000Y-129500000D03*
%TD*%
D22*
%TO.C,J1*%
X62900000Y-119700000D03*
X62900000Y-124300000D03*
D23*
X65650000Y-125500000D03*
X65650000Y-123000000D03*
X65650000Y-121000000D03*
X65650000Y-118500000D03*
D24*
X62900000Y-127700000D03*
X62900000Y-116300000D03*
%TD*%
D25*
%TO.C,DS1*%
X95450000Y-126200000D03*
X95450000Y-125500000D03*
X95450000Y-124800000D03*
X95450000Y-124100000D03*
X95450000Y-123400000D03*
X95450000Y-122700000D03*
X95450000Y-122000000D03*
X95450000Y-121300000D03*
X95450000Y-120600000D03*
X95450000Y-119900000D03*
X95450000Y-119200000D03*
X95450000Y-118500000D03*
X95450000Y-117800000D03*
%TD*%
D15*
%TO.C,SW1*%
X70150000Y-114900000D03*
X67850000Y-114900000D03*
D18*
X71100000Y-116550000D03*
X66900000Y-116550000D03*
D19*
X65600000Y-114500000D03*
X72400000Y-114500000D03*
%TD*%
D26*
%TO.C,BT1*%
X69000000Y-120200000D03*
D27*
X69000000Y-118200000D03*
%TD*%
D15*
%TO.C,SW2*%
X78650000Y-114900000D03*
X76350000Y-114900000D03*
D18*
X79600000Y-116550000D03*
X75400000Y-116550000D03*
D19*
X74100000Y-114500000D03*
X80900000Y-114500000D03*
%TD*%
D15*
%TO.C,SW4*%
X93350000Y-114900000D03*
X95650000Y-114900000D03*
D18*
X96600000Y-116550000D03*
X92400000Y-116550000D03*
D19*
X97900000Y-114500000D03*
X91100000Y-114500000D03*
%TD*%
D28*
%TO.C,U6*%
X83900000Y-123405000D03*
X83900000Y-122135000D03*
X83900000Y-120865000D03*
X83900000Y-119595000D03*
X77500000Y-119595000D03*
X77500000Y-120865000D03*
X77500000Y-122135000D03*
X77500000Y-123405000D03*
%TD*%
M02*
