M48
; DRILL file {KiCad (6.0.2)} date Sat Jun 11 15:58:36 2022
; FORMAT={-:-/ absolute / metric / decimal}
; #@! TF.CreationDate,2022-06-11T15:58:36+03:00
; #@! TF.GenerationSoftware,Kicad,Pcbnew,(6.0.2)
; #@! TF.FileFunction,Plated,1,2,PTH
FMAT,2
METRIC
; #@! TA.AperFunction,Plated,PTH,ViaDrill
T1C0.300
; #@! TA.AperFunction,Plated,PTH,ComponentDrill
T2C0.800
; #@! TA.AperFunction,Plated,PTH,ComponentDrill
T3C0.900
%
G90
G05
T1
X63.7Y-125.5
X64.75Y-114.5
X64.75Y-129.5
X67.5Y-124.9
X67.8Y-123.2
X68.75Y-126.6
X71.6Y-118.8
X71.9Y-126.6
X72.0Y-125.7
X72.4Y-117.4
X72.4Y-128.0
X73.25Y-114.5
X73.25Y-129.5
X73.556Y-119.656
X74.212Y-118.986
X74.3Y-126.45
X74.5Y-125.3
X74.7Y-118.3
X75.1Y-126.4
X75.3Y-121.75
X76.05Y-127.15
X76.097Y-121.693
X76.2Y-120.9
X76.8Y-116.5
X76.834Y-127.593
X78.751Y-123.9
X78.9Y-121.3
X79.65Y-120.0
X80.164Y-122.0
X80.2Y-123.9
X80.85Y-128.15
X81.0Y-122.0
X81.249Y-120.2
X81.3Y-116.3
X81.3Y-123.7
X81.7Y-128.15
X81.75Y-114.5
X81.75Y-129.5
X81.9Y-117.0
X82.141Y-122.1
X82.7Y-117.3
X85.3Y-122.05
X85.5Y-118.999
X85.5Y-119.799
X89.4Y-120.1
X89.5Y-121.25
X89.5Y-128.1
X90.25Y-114.5
X90.25Y-129.5
X91.6Y-126.4
X92.5Y-126.4
X93.3Y-122.2
X93.3Y-124.7
X93.4Y-126.4
X97.0Y-123.0
X97.0Y-124.5
X97.5Y-118.3
X98.2Y-127.5
X98.7Y-114.5
X98.7Y-129.5
X100.5Y-117.0
X100.5Y-119.25
X100.5Y-123.0
T2
X69.0Y-118.2
X69.0Y-120.2
T3
G00X63.7Y-116.3
M15
G01X62.1Y-116.3
M16
G05
G00X63.7Y-127.7
M15
G01X62.1Y-127.7
M16
G05
T0
M30
